{
  "accessors": [
    {
      "bufferView": 2,
      "componentType": 5126,
      "count": 32287,
      "max": [
        0.13365702331066132,
        0.9736181497573853,
        0.2103208303451538
      ],
      "min": [
        -0.13365702331066132,
        -0.33933931589126587,
        -3.601789951324463
      ],
      "type": "VEC3"
    },
    {
      "bufferView": 2,
      "byteOffset": 387444,
      "componentType": 5126,
      "count": 32287,
      "type": "VEC3"
    },
    {
      "bufferView": 3,
      "componentType": 5126,
      "count": 32287,
      "type": "VEC4"
    },
    {
      "bufferView": 1,
      "componentType": 5126,
      "count": 32287,
      "type": "VEC2"
    },
    {
      "bufferView": 0,
      "componentType": 5125,
      "count": 32367,
      "type": "SCALAR"
    },
    {
      "bufferView": 2,
      "byteOffset": 774888,
      "componentType": 5126,
      "count": 31756,
      "max": [
        0.022471660748124123,
        0.8313003778457642,
        7.573631286621094
      ],
      "min": [
        -0.022471221163868904,
        -0.409989595413208,
        -0.02309739589691162
      ],
      "type": "VEC3"
    },
    {
      "bufferView": 2,
      "byteOffset": 1155960,
      "componentType": 5126,
      "count": 31756,
      "type": "VEC3"
    },
    {
      "bufferView": 3,
      "byteOffset": 516592,
      "componentType": 5126,
      "count": 31756,
      "type": "VEC4"
    },
    {
      "bufferView": 1,
      "byteOffset": 258296,
      "componentType": 5126,
      "count": 31756,
      "type": "VEC2"
    },
    {
      "bufferView": 0,
      "byteOffset": 129468,
      "componentType": 5125,
      "count": 32370,
      "type": "SCALAR"
    },
    {
      "bufferView": 2,
      "byteOffset": 1537032,
      "componentType": 5126,
      "count": 1860,
      "max": [
        0.1049620658159256,
        0.8786121010780334,
        -0.12905561923980713
      ],
      "min": [
        -0.10485143959522247,
        -0.21894191205501556,
        -3.3912057876586914
      ],
      "type": "VEC3"
    },
    {
      "bufferView": 2,
      "byteOffset": 1559352,
      "componentType": 5126,
      "count": 1860,
      "type": "VEC3"
    },
    {
      "bufferView": 3,
      "byteOffset": 1024688,
      "componentType": 5126,
      "count": 1860,
      "type": "VEC4"
    },
    {
      "bufferView": 1,
      "byteOffset": 512344,
      "componentType": 5126,
      "count": 1860,
      "type": "VEC2"
    },
    {
      "bufferView": 0,
      "byteOffset": 258948,
      "componentType": 5125,
      "count": 1872,
      "type": "SCALAR"
    }
  ],
  "asset": {
    "generator": "fab-model-conversion",
    "version": "2.0"
  },
  "bufferViews": [
    {
      "buffer": 0,
      "byteLength": 266436,
      "target": 34963
    },
    {
      "buffer": 0,
      "byteLength": 527224,
      "byteOffset": 266436,
      "byteStride": 8,
      "target": 34962
    },
    {
      "buffer": 0,
      "byteLength": 1581672,
      "byteOffset": 793660,
      "byteStride": 12,
      "target": 34962
    },
    {
      "buffer": 0,
      "byteLength": 1054448,
      "byteOffset": 2375332,
      "byteStride": 16,
      "target": 34962
    }
  ],
  "buffers": [
    {
      "byteLength": 3429780,
      "uri": "scene.bin"
    }
  ],
  "extensionsUsed": [
    "KHR_materials_specular"
  ],
  "images": [
    {
      "uri": "textures/Material_baseColor.png"
    },
    {
      "uri": "textures/Material_metallicRoughness.png"
    },
    {
      "uri": "textures/Material_normal.png"
    }
  ],
  "materials": [
    {
      "doubleSided": true,
      "extensions": {
        "KHR_materials_specular": {
          "specularColorFactor": [
            1.0,
            1.0,
            1.0
          ],
          "specularFactor": 0.4
        }
      },
      "name": "Material",
      "normalTexture": {
        "index": 2
      },
      "pbrMetallicRoughness": {
        "baseColorTexture": {
          "index": 0
        },
        "metallicRoughnessTexture": {
          "index": 1
        }
      }
    }
  ],
  "meshes": [
    {
      "name": "Object_0",
      "primitives": [
        {
          "attributes": {
            "NORMAL": 1,
            "POSITION": 0,
            "TANGENT": 2,
            "TEXCOORD_0": 3
          },
          "indices": 4,
          "material": 0,
          "mode": 4
        }
      ]
    },
    {
      "name": "Object_1",
      "primitives": [
        {
          "attributes": {
            "NORMAL": 6,
            "POSITION": 5,
            "TANGENT": 7,
            "TEXCOORD_0": 8
          },
          "indices": 9,
          "material": 0,
          "mode": 4
        }
      ]
    },
    {
      "name": "Object_2",
      "primitives": [
        {
          "attributes": {
            "NORMAL": 11,
            "POSITION": 10,
            "TANGENT": 12,
            "TEXCOORD_0": 13
          },
          "indices": 14,
          "material": 0,
          "mode": 4
        }
      ]
    }
  ],
  "nodes": [
    {
      "children": [
        1
      ],
      "matrix": [
        1.0,
        0.0,
        0.0,
        0.0,
        0.0,
        2.220446049250313e-16,
        -1.0,
        0.0,
        0.0,
        1.0,
        2.220446049250313e-16,
        0.0,
        0.0,
        0.0,
        0.0,
        1.0
      ],
      "name": "Sketchfab_model"
    },
    {
      "children": [
        2
      ],
      "name": "root"
    },
    {
      "children": [
        3,
        5,
        7
      ],
      "matrix": [
        1.0,
        0.0,
        0.0,
        0.0,
        0.0,
        2.220446049250313e-16,
        1.0,
        0.0,
        0.0,
        -1.0,
        2.220446049250313e-16,
        0.0,
        0.0,
        0.0,
        0.0,
        1.0
      ],
      "name": "GLTF_SceneRootNode"
    },
    {
      "children": [
        4
      ],
      "name": "Extruded.001_0"
    },
    {
      "mesh": 0,
      "name": "Object_4"
    },
    {
      "children": [
        6
      ],
      "name": "Extruded.002_1"
    },
    {
      "mesh": 1,
      "name": "Object_6"
    },
    {
      "children": [
        8
      ],
      "name": "Sheet_49_2"
    },
    {
      "mesh": 2,
      "name": "Object_8"
    }
  ],
  "samplers": [
    {
      "magFilter": 9729,
      "minFilter": 9987,
      "wrapS": 10497,
      "wrapT": 10497
    }
  ],
  "scene": 0,
  "scenes": [
    {
      "name": "Sketchfab_Scene",
      "nodes": [
        0
      ]
    }
  ],
  "textures": [
    {
      "sampler": 0,
      "source": 0
    },
    {
      "sampler": 0,
      "source": 1
    },
    {
      "sampler": 0,
      "source": 2
    }
  ]
}
